<svg width="36" height="36" viewBox="0 0 36 36" fill="none" xmlns="http://www.w3.org/2000/svg">
<g id="web">
<path id="Vector" d="M27 18C27 22.9706 22.9706 27 18 27M27 18C27 13.0294 22.9706 9 18 9M27 18H9M18 27C13.0294 27 9 22.9706 9 18M18 27C15.689 24.5735 14.4 21.3509 14.4 18C14.4 14.6491 15.689 11.4265 18 9M18 27C20.311 24.5735 21.6 21.3509 21.6 18C21.6 14.6491 20.311 11.4265 18 9M9 18C9 13.0294 13.0294 9 18 9" stroke="white" stroke-width="2" stroke-linecap="round" stroke-linejoin="round"/>
</g>
</svg>
